# xmcd
# Track frame offsets:
# 150
# 18102
# 36578
# 54341
# 71386
#
# Disc length: 1192 seconds
# Revision: 0
# Processed by: cddbd v1.5.2PL0 Copyright (c) Steve Scherf et al.
# Submitted via: VisiTrax 2.11.2.271 - For more info visit www.synapsa.com
#
DISCID=3804a605
DTITLE=Various Artist - The Hottest Stars Of Country
DYEAR=2007
DGENRE=Country
TTITLE0=Tim McGraw - Last Dollar (Fly Away)
TTITLE1=Martina McBride - Anyway
TTITLE2=Gretchen Wilson - Come To Bed
TTITLE3=Carrie Underwood - Wasted
TTITLE4=Kellie Pickler - I Wonder
EXTD=
EXTT0=
EXTT1=
EXTT2=
EXTT3=
EXTT4=
PLAYORDER=
